<svg xmlns="http://www.w3.org/2000/svg" viewBox="0 0 1200 650" role="img">
  <defs><linearGradient id="bg" x1="0" y1="0" x2="1" y2="1"><stop stop-color="#1e3a8a"/><stop offset="1" stop-color="#115e59"/></linearGradient><marker id="a" markerWidth="10" markerHeight="10" refX="8" refY="5" orient="auto"><path d="M0 0l10 5-10 5z" fill="#fbbf24"/></marker></defs>
  <rect width="1200" height="650" rx="36" fill="url(#bg)"/><text x="60" y="74" fill="#fff" font-family="Arial" font-size="34" font-weight="700">Architecture decision loop</text>
  <g fill="#fff" stroke="#5eead4" stroke-width="3"><rect x="50" y="255" width="180" height="110" rx="55"/><rect x="285" y="255" width="180" height="110" rx="20"/><rect x="520" y="255" width="180" height="110" rx="20"/><rect x="755" y="255" width="180" height="110" rx="20"/><rect x="990" y="255" width="160" height="110" rx="55"/></g>
  <g fill="#134e4a" font-family="Arial" text-anchor="middle"><text x="140" y="316" font-size="22" font-weight="700">Requirement</text><text x="375" y="300" font-size="22" font-weight="700">Constraint</text><text x="375" y="334" font-size="17">Scope choices</text><text x="610" y="300" font-size="22" font-weight="700">Options</text><text x="610" y="334" font-size="17">Same criteria</text><text x="845" y="300" font-size="22" font-weight="700">Decision</text><text x="845" y="334" font-size="17">Trade-off</text><text x="1070" y="316" font-size="22" font-weight="700">Evidence</text></g>
  <g fill="none" stroke="#fbbf24" stroke-width="5" marker-end="url(#a)"><path d="M230 310h50"/><path d="M465 310h50"/><path d="M700 310h50"/><path d="M935 310h50"/><path d="M1070 370c0 180-695 190-695 5"/></g><text x="600" y="575" fill="#ccfbf1" font-family="Arial" font-size="21" text-anchor="middle">Revisit the decision when metrics, risks or constraints change</text>
</svg>
