<svg xmlns="http://www.w3.org/2000/svg" viewBox="0 0 1200 650" role="img">
  <defs><linearGradient id="bg" x1="0" y1="0" x2="1" y2="1"><stop stop-color="#172554"/><stop offset="1" stop-color="#0f766e"/></linearGradient><marker id="a" markerWidth="10" markerHeight="10" refX="8" refY="5" orient="auto"><path d="M0 0l10 5-10 5z" fill="#f59e0b"/></marker></defs>
  <rect width="1200" height="650" rx="36" fill="url(#bg)"/><text x="60" y="74" fill="#fff" font-family="Arial" font-size="34" font-weight="700">AWS foundation &amp; governance</text>
  <g fill="#fff" stroke="#93c5fd" stroke-width="3"><rect x="465" y="112" width="270" height="82" rx="18"/><rect x="170" y="270" width="250" height="100" rx="18"/><rect x="475" y="270" width="250" height="100" rx="18"/><rect x="780" y="270" width="250" height="100" rx="18"/><rect x="170" y="468" width="250" height="92" rx="18"/><rect x="475" y="468" width="250" height="92" rx="18"/><rect x="780" y="468" width="250" height="92" rx="18"/></g>
  <g fill="#172554" font-family="Arial" text-anchor="middle"><text x="600" y="162" font-size="25" font-weight="700">AWS Organizations</text><text x="295" y="315" font-size="24" font-weight="700">Production OU</text><text x="295" y="345" font-size="18">Account boundary</text><text x="600" y="315" font-size="24" font-weight="700">Platform OU</text><text x="600" y="345" font-size="18">Shared services</text><text x="905" y="315" font-size="24" font-weight="700">Sandbox OU</text><text x="905" y="345" font-size="18">Experiment safely</text><text x="295" y="515" font-size="23" font-weight="700">IAM &amp; federation</text><text x="600" y="515" font-size="23" font-weight="700">SCP guardrails</text><text x="905" y="515" font-size="23" font-weight="700">Audit evidence</text></g>
  <g fill="none" stroke="#f59e0b" stroke-width="5" marker-end="url(#a)"><path d="M520 194L350 267"/><path d="M600 194v72"/><path d="M680 194l170 73"/><path d="M295 370v94"/><path d="M600 370v94"/><path d="M905 370v94"/></g>
</svg>
