<svg xmlns="http://www.w3.org/2000/svg" viewBox="0 0 1200 650" role="img">
  <defs><linearGradient id="bg" x1="0" y1="0" x2="1" y2="1"><stop stop-color="#581c87"/><stop offset="1" stop-color="#1e3a8a"/></linearGradient><marker id="a" markerWidth="10" markerHeight="10" refX="8" refY="5" orient="auto"><path d="M0 0l10 5-10 5z" fill="#fbbf24"/></marker></defs>
  <rect width="1200" height="650" rx="36" fill="url(#bg)"/><text x="60" y="74" fill="#fff" font-family="Arial" font-size="34" font-weight="700">Data platform by access pattern</text>
  <g fill="#fff" stroke="#c4b5fd" stroke-width="3"><rect x="65" y="255" width="185" height="110" rx="55"/><rect x="315" y="255" width="205" height="110" rx="20"/><rect x="600" y="135" width="235" height="110" rx="20"/><rect x="600" y="275" width="235" height="110" rx="20"/><rect x="600" y="415" width="235" height="110" rx="20"/><rect x="915" y="255" width="220" height="110" rx="20"/></g>
  <g fill="#3b0764" font-family="Arial" text-anchor="middle"><text x="157" y="318" font-size="24" font-weight="700">Workload</text><text x="417" y="300" font-size="23" font-weight="700">ElastiCache</text><text x="417" y="336" font-size="18">Hot data</text><text x="717" y="180" font-size="23" font-weight="700">Aurora / RDS</text><text x="717" y="215" font-size="18">Relational</text><text x="717" y="320" font-size="23" font-weight="700">DynamoDB</text><text x="717" y="355" font-size="18">Key-value</text><text x="717" y="460" font-size="23" font-weight="700">S3 data lake</text><text x="717" y="495" font-size="18">Analytics</text><text x="1025" y="300" font-size="23" font-weight="700">Evidence</text><text x="1025" y="336" font-size="18">Backup · metrics</text></g>
  <g fill="none" stroke="#fbbf24" stroke-width="5" marker-end="url(#a)"><path d="M250 310h60"/><path d="M520 280l75-80"/><path d="M520 310h75"/><path d="M520 340l75 120"/><path d="M835 190l75 80"/><path d="M835 330h75"/><path d="M835 470l75-100"/></g>
</svg>
