<svg xmlns="http://www.w3.org/2000/svg" viewBox="0 0 1200 650" role="img">
  <defs><linearGradient id="bg" x1="0" y1="0" x2="1" y2="1"><stop stop-color="#0f172a"/><stop offset="1" stop-color="#1d4ed8"/></linearGradient><marker id="a" markerWidth="10" markerHeight="10" refX="8" refY="5" orient="auto"><path d="M0 0l10 5-10 5z" fill="#fb923c"/></marker></defs>
  <rect width="1200" height="650" rx="36" fill="url(#bg)"/><text x="60" y="74" fill="#fff" font-family="Arial" font-size="34" font-weight="700">Elastic compute request path</text>
  <g fill="#fff" stroke="#93c5fd" stroke-width="3"><rect x="70" y="255" width="190" height="110" rx="55"/><rect x="335" y="255" width="210" height="110" rx="18"/><rect x="620" y="145" width="250" height="130" rx="18"/><rect x="620" y="350" width="250" height="130" rx="18"/><rect x="950" y="255" width="180" height="110" rx="18"/></g>
  <g fill="#172554" font-family="Arial" text-anchor="middle"><text x="165" y="320" font-size="25" font-weight="700">Users</text><text x="440" y="305" font-size="24" font-weight="700">ALB / NLB</text><text x="440" y="337" font-size="18">Health checks</text><text x="745" y="205" font-size="24" font-weight="700">EC2 · AZ A</text><text x="745" y="239" font-size="18">Auto Scaling</text><text x="745" y="410" font-size="24" font-weight="700">EC2 · AZ B</text><text x="745" y="444" font-size="18">Auto Scaling</text><text x="1040" y="306" font-size="23" font-weight="700">Data tier</text><text x="1040" y="338" font-size="17">Managed state</text></g>
  <g fill="none" stroke="#fb923c" stroke-width="5" marker-end="url(#a)"><path d="M260 310h70"/><path d="M545 290l70-70"/><path d="M545 330l70 70"/><path d="M870 210l75 70"/><path d="M870 415l75-70"/></g><path d="M625 525h240" stroke="#60a5fa" stroke-width="4" stroke-dasharray="12 10"/><text x="745" y="565" fill="#bfdbfe" font-family="Arial" font-size="20" text-anchor="middle">Metrics → scaling policy → capacity</text>
</svg>
