<svg xmlns="http://www.w3.org/2000/svg" viewBox="0 0 1200 650" role="img">
  <defs><linearGradient id="bg" x1="0" y1="0" x2="1" y2="1"><stop stop-color="#7c2d12"/><stop offset="1" stop-color="#312e81"/></linearGradient><marker id="a" markerWidth="10" markerHeight="10" refX="8" refY="5" orient="auto"><path d="M0 0l10 5-10 5z" fill="#fde047"/></marker></defs>
  <rect width="1200" height="650" rx="36" fill="url(#bg)"/><text x="60" y="74" fill="#fff" font-family="Arial" font-size="34" font-weight="700">Event-driven and loosely coupled flow</text>
  <g fill="#fff" stroke="#fdba74" stroke-width="3"><rect x="55" y="255" width="185" height="110" rx="55"/><rect x="300" y="255" width="205" height="110" rx="20"/><rect x="565" y="255" width="180" height="110" rx="20"/><rect x="805" y="255" width="170" height="110" rx="55"/><rect x="1035" y="255" width="120" height="110" rx="20"/><rect x="565" y="440" width="180" height="90" rx="20"/></g>
  <g fill="#7c2d12" font-family="Arial" text-anchor="middle"><text x="147" y="320" font-size="23" font-weight="700">Producer</text><text x="402" y="300" font-size="22" font-weight="700">EventBridge</text><text x="402" y="335" font-size="18">Route events</text><text x="655" y="302" font-size="24" font-weight="700">SQS</text><text x="655" y="337" font-size="18">Buffer &amp; retry</text><text x="890" y="320" font-size="24" font-weight="700">Lambda</text><text x="1095" y="303" font-size="21" font-weight="700">State</text><text x="1095" y="336" font-size="16">Idempotent</text><text x="655" y="494" font-size="22" font-weight="700">Dead-letter queue</text></g>
  <g fill="none" stroke="#fde047" stroke-width="5" marker-end="url(#a)"><path d="M240 310h55"/><path d="M505 310h55"/><path d="M745 310h55"/><path d="M975 310h55"/><path d="M655 365v70"/></g><text x="600" y="590" fill="#ffedd5" font-family="Arial" font-size="21" text-anchor="middle">Contract · backpressure · idempotency · failure destination</text>
</svg>
