<svg xmlns="http://www.w3.org/2000/svg" viewBox="0 0 1200 650" role="img">
  <defs><linearGradient id="bg" x1="0" y1="0" x2="1" y2="1"><stop stop-color="#134e4a"/><stop offset="1" stop-color="#1e3a8a"/></linearGradient><marker id="a" markerWidth="10" markerHeight="10" refX="8" refY="5" orient="auto"><path d="M0 0l10 5-10 5z" fill="#fbbf24"/></marker></defs>
  <rect width="1200" height="650" rx="36" fill="url(#bg)"/><text x="60" y="74" fill="#fff" font-family="Arial" font-size="34" font-weight="700">Continuous improvement with evidence</text>
  <g fill="#fff" stroke="#5eead4" stroke-width="3"><rect x="65" y="255" width="190" height="110" rx="55"/><rect x="305" y="255" width="190" height="110" rx="20"/><rect x="545" y="255" width="190" height="110" rx="20"/><rect x="785" y="255" width="190" height="110" rx="20"/><rect x="1025" y="255" width="130" height="110" rx="55"/></g>
  <g fill="#134e4a" font-family="Arial" text-anchor="middle"><text x="160" y="300" font-size="22" font-weight="700">Telemetry</text><text x="160" y="334" font-size="17">Metric · log · trace</text><text x="400" y="300" font-size="22" font-weight="700">Outcome</text><text x="400" y="334" font-size="17">KPI · SLO</text><text x="640" y="300" font-size="22" font-weight="700">Finding</text><text x="640" y="334" font-size="17">Risk · bottleneck</text><text x="880" y="300" font-size="22" font-weight="700">Change</text><text x="880" y="334" font-size="17">Runbook · rollout</text><text x="1090" y="318" font-size="21" font-weight="700">Review</text></g>
  <g fill="none" stroke="#fbbf24" stroke-width="5" marker-end="url(#a)"><path d="M255 310h45"/><path d="M495 310h45"/><path d="M735 310h45"/><path d="M975 310h45"/><path d="M1090 370c0 175-690 195-690 5"/></g><text x="600" y="565" fill="#ccfbf1" font-family="Arial" font-size="21" text-anchor="middle">Change one risk, observe the result, preserve rollback evidence</text>
</svg>
