<svg xmlns="http://www.w3.org/2000/svg" viewBox="0 0 1200 650" role="img">
  <defs><linearGradient id="bg" x1="0" y1="0" x2="1" y2="1"><stop stop-color="#172554"/><stop offset="1" stop-color="#701a75"/></linearGradient><marker id="a" markerWidth="10" markerHeight="10" refX="8" refY="5" orient="auto"><path d="M0 0l10 5-10 5z" fill="#fbbf24"/></marker></defs>
  <rect width="1200" height="650" rx="36" fill="url(#bg)"/><text x="60" y="74" fill="#fff" font-family="Arial" font-size="34" font-weight="700">Global-scale resilient architecture</text>
  <g fill="#fff" stroke="#c4b5fd" stroke-width="3"><rect x="65" y="255" width="190" height="110" rx="55"/><rect x="320" y="255" width="220" height="110" rx="20"/><rect x="615" y="130" width="250" height="155" rx="24"/><rect x="615" y="365" width="250" height="155" rx="24"/><rect x="940" y="255" width="200" height="110" rx="20"/></g>
  <g fill="#3b0764" font-family="Arial" text-anchor="middle"><text x="160" y="318" font-size="24" font-weight="700">Global users</text><text x="430" y="299" font-size="23" font-weight="700">Route 53</text><text x="430" y="334" font-size="18">CloudFront</text><text x="740" y="185" font-size="24" font-weight="700">Region A</text><text x="740" y="220" font-size="18">Multi-AZ workload</text><text x="740" y="255" font-size="17">Primary path</text><text x="740" y="420" font-size="24" font-weight="700">Region B</text><text x="740" y="455" font-size="18">Recovery workload</text><text x="740" y="490" font-size="17">Tested failover</text><text x="1040" y="300" font-size="22" font-weight="700">Global data</text><text x="1040" y="335" font-size="17">RPO · conflicts</text></g>
  <g fill="none" stroke="#fbbf24" stroke-width="5" marker-end="url(#a)"><path d="M255 310h60"/><path d="M540 280l70-65"/><path d="M540 340l70 85"/><path d="M865 210l70 70"/><path d="M865 440l70-90"/></g>
</svg>
