<svg xmlns="http://www.w3.org/2000/svg" viewBox="0 0 1200 650" role="img">
  <defs><linearGradient id="bg" x1="0" y1="0" x2="1" y2="1"><stop stop-color="#164e63"/><stop offset="1" stop-color="#312e81"/></linearGradient><marker id="a" markerWidth="10" markerHeight="10" refX="8" refY="5" orient="auto"><path d="M0 0l10 5-10 5z" fill="#fbbf24"/></marker></defs>
  <rect width="1200" height="650" rx="36" fill="url(#bg)"/><text x="60" y="74" fill="#fff" font-family="Arial" font-size="34" font-weight="700">Hybrid and multi-VPC network</text>
  <g fill="#fff" stroke="#67e8f9" stroke-width="3"><rect x="70" y="235" width="220" height="150" rx="22"/><rect x="365" y="255" width="205" height="110" rx="55"/><rect x="645" y="245" width="210" height="130" rx="22"/><rect x="930" y="130" width="200" height="130" rx="22"/><rect x="930" y="385" width="200" height="130" rx="22"/></g>
  <g fill="#164e63" font-family="Arial" text-anchor="middle"><text x="180" y="296" font-size="25" font-weight="700">On-premises</text><text x="180" y="332" font-size="18">DNS · routes · firewall</text><text x="468" y="304" font-size="23" font-weight="700">DX / VPN</text><text x="468" y="336" font-size="18">Private path</text><text x="750" y="302" font-size="24" font-weight="700">Transit Gateway</text><text x="750" y="338" font-size="18">Route domains</text><text x="1030" y="185" font-size="24" font-weight="700">Workload VPC</text><text x="1030" y="221" font-size="18">Private subnets</text><text x="1030" y="440" font-size="24" font-weight="700">Shared VPC</text><text x="1030" y="476" font-size="18">Endpoints · inspection</text></g>
  <g fill="none" stroke="#fbbf24" stroke-width="5" marker-end="url(#a)"><path d="M290 310h70"/><path d="M570 310h70"/><path d="M855 285l70-80"/><path d="M855 340l70 100"/></g><text x="600" y="555" fill="#cffafe" font-family="Arial" font-size="21" text-anchor="middle">Validate both forward and return paths across every boundary</text>
</svg>
