<svg xmlns="http://www.w3.org/2000/svg" viewBox="0 0 1200 650" role="img">
  <defs><linearGradient id="bg" x1="0" y1="0" x2="1" y2="1"><stop stop-color="#312e81"/><stop offset="1" stop-color="#065f46"/></linearGradient><marker id="a" markerWidth="10" markerHeight="10" refX="8" refY="5" orient="auto"><path d="M0 0l10 5-10 5z" fill="#fbbf24"/></marker></defs>
  <rect width="1200" height="650" rx="36" fill="url(#bg)"/><text x="60" y="74" fill="#fff" font-family="Arial" font-size="34" font-weight="700">Migration and modernization journey</text>
  <g fill="#fff" stroke="#a7f3d0" stroke-width="3"><rect x="40" y="255" width="165" height="110" rx="55"/><rect x="245" y="255" width="165" height="110" rx="20"/><rect x="450" y="255" width="165" height="110" rx="20"/><rect x="655" y="255" width="205" height="110" rx="20"/><rect x="900" y="255" width="155" height="110" rx="20"/><rect x="1090" y="255" width="80" height="110" rx="40"/></g>
  <g fill="#064e3b" font-family="Arial" text-anchor="middle"><text x="122" y="300" font-size="21" font-weight="700">Discover</text><text x="122" y="334" font-size="16">Dependencies</text><text x="327" y="300" font-size="21" font-weight="700">Choose 7R</text><text x="327" y="334" font-size="16">Business value</text><text x="532" y="300" font-size="21" font-weight="700">Plan waves</text><text x="532" y="334" font-size="16">Exit criteria</text><text x="757" y="300" font-size="21" font-weight="700">Move &amp; validate</text><text x="757" y="334" font-size="16">MGN · DMS · DataSync</text><text x="977" y="300" font-size="21" font-weight="700">Stabilize</text><text x="977" y="334" font-size="16">Measure</text><text x="1130" y="318" font-size="18" font-weight="700">Value</text></g>
  <g fill="none" stroke="#fbbf24" stroke-width="5" marker-end="url(#a)"><path d="M205 310h35"/><path d="M410 310h35"/><path d="M615 310h35"/><path d="M860 310h35"/><path d="M1055 310h30"/></g><path d="M532 370c0 115 445 115 445 0" fill="none" stroke="#6ee7b7" stroke-width="4" stroke-dasharray="11 9"/><text x="750" y="520" fill="#d1fae5" font-family="Arial" font-size="21" text-anchor="middle">Rollback path and validation gate for every wave</text>
</svg>
