<svg xmlns="http://www.w3.org/2000/svg" viewBox="0 0 1200 650" role="img">
  <defs><linearGradient id="bg" x1="0" y1="0" x2="1" y2="1"><stop stop-color="#0c4a6e"/><stop offset="1" stop-color="#4c1d95"/></linearGradient><marker id="a" markerWidth="10" markerHeight="10" refX="8" refY="5" orient="auto"><path d="M0 0l10 5-10 5z" fill="#fbbf24"/></marker></defs>
  <rect width="1200" height="650" rx="36" fill="url(#bg)"/><text x="60" y="74" fill="#fff" font-family="Arial" font-size="34" font-weight="700">Modern application and data platform</text>
  <g fill="#fff" stroke="#7dd3fc" stroke-width="3"><rect x="55" y="255" width="170" height="110" rx="55"/><rect x="280" y="255" width="190" height="110" rx="20"/><rect x="530" y="135" width="220" height="120" rx="20"/><rect x="530" y="375" width="220" height="120" rx="20"/><rect x="810" y="135" width="210" height="120" rx="20"/><rect x="810" y="375" width="210" height="120" rx="20"/><rect x="1065" y="255" width="95" height="110" rx="20"/></g>
  <g fill="#0c4a6e" font-family="Arial" text-anchor="middle"><text x="140" y="318" font-size="23" font-weight="700">Clients</text><text x="375" y="300" font-size="22" font-weight="700">API layer</text><text x="375" y="335" font-size="17">Auth · quota</text><text x="640" y="185" font-size="22" font-weight="700">ECS / EKS</text><text x="640" y="220" font-size="17">Containers</text><text x="640" y="425" font-size="22" font-weight="700">Lambda</text><text x="640" y="460" font-size="17">Events</text><text x="915" y="185" font-size="22" font-weight="700">Databases</text><text x="915" y="220" font-size="17">Access pattern</text><text x="915" y="425" font-size="22" font-weight="700">Data lake</text><text x="915" y="460" font-size="17">Analytics</text><text x="1112" y="319" font-size="18" font-weight="700">Value</text></g>
  <g fill="none" stroke="#fbbf24" stroke-width="5" marker-end="url(#a)"><path d="M225 310h50"/><path d="M470 280l55-70"/><path d="M470 340l55 80"/><path d="M750 195h55"/><path d="M750 435h55"/><path d="M1020 195l40 80"/><path d="M1020 435l40-80"/></g>
</svg>
