<svg xmlns="http://www.w3.org/2000/svg" viewBox="0 0 1200 650" role="img">
  <defs><linearGradient id="bg" x1="0" y1="0" x2="1" y2="1"><stop stop-color="#0f172a"/><stop offset="1" stop-color="#991b1b"/></linearGradient><marker id="a" markerWidth="10" markerHeight="10" refX="8" refY="5" orient="auto"><path d="M0 0l10 5-10 5z" fill="#fbbf24"/></marker></defs>
  <rect width="1200" height="650" rx="36" fill="url(#bg)"/><text x="60" y="74" fill="#fff" font-family="Arial" font-size="34" font-weight="700">Security, operations and resilience</text>
  <g fill="#fff" stroke="#fca5a5" stroke-width="3"><rect x="70" y="140" width="230" height="105" rx="20"/><rect x="70" y="385" width="230" height="105" rx="20"/><rect x="385" y="220" width="430" height="190" rx="28"/><rect x="900" y="140" width="230" height="105" rx="20"/><rect x="900" y="385" width="230" height="105" rx="20"/></g>
  <g fill="#450a0a" font-family="Arial" text-anchor="middle"><text x="185" y="185" font-size="23" font-weight="700">IAM · KMS</text><text x="185" y="218" font-size="17">Prevent &amp; protect</text><text x="185" y="430" font-size="23" font-weight="700">Config · policy</text><text x="185" y="463" font-size="17">Detect drift</text><text x="600" y="285" font-size="28" font-weight="700">Multi-AZ workload</text><text x="600" y="328" font-size="21">Health checks · isolation · failover</text><text x="600" y="370" font-size="18">Known blast radius</text><text x="1015" y="185" font-size="23" font-weight="700">Logs · alarms</text><text x="1015" y="218" font-size="17">Observe impact</text><text x="1015" y="430" font-size="23" font-weight="700">Backup · runbook</text><text x="1015" y="463" font-size="17">Recover &amp; learn</text></g>
  <g fill="none" stroke="#fbbf24" stroke-width="5" marker-end="url(#a)"><path d="M300 195l80 65"/><path d="M300 435l80-65"/><path d="M815 260l80-65"/><path d="M815 370l80 65"/></g><text x="600" y="565" fill="#fee2e2" font-family="Arial" font-size="21" text-anchor="middle">Control → observe → respond → validate recovery evidence</text>
</svg>
