<svg xmlns="http://www.w3.org/2000/svg" viewBox="0 0 1200 650" role="img">
  <defs><linearGradient id="bg" x1="0" y1="0" x2="1" y2="1"><stop stop-color="#064e3b"/><stop offset="1" stop-color="#0f172a"/></linearGradient><marker id="a" markerWidth="10" markerHeight="10" refX="8" refY="5" orient="auto"><path d="M0 0l10 5-10 5z" fill="#fbbf24"/></marker></defs>
  <rect width="1200" height="650" rx="36" fill="url(#bg)"/><text x="60" y="74" fill="#fff" font-family="Arial" font-size="34" font-weight="700">Storage and data lifecycle</text>
  <g fill="#fff" stroke="#6ee7b7" stroke-width="3"><rect x="65" y="245" width="190" height="120" rx="20"/><rect x="320" y="245" width="205" height="120" rx="20"/><rect x="590" y="245" width="205" height="120" rx="20"/><rect x="860" y="245" width="270" height="120" rx="20"/><rect x="320" y="440" width="475" height="92" rx="20"/></g>
  <g fill="#064e3b" font-family="Arial" text-anchor="middle"><text x="160" y="300" font-size="24" font-weight="700">Applications</text><text x="160" y="333" font-size="18">Access pattern</text><text x="422" y="297" font-size="24" font-weight="700">S3 Standard</text><text x="422" y="332" font-size="18">Active objects</text><text x="692" y="297" font-size="23" font-weight="700">IA / One Zone</text><text x="692" y="332" font-size="18">Infrequent access</text><text x="995" y="297" font-size="23" font-weight="700">Glacier classes</text><text x="995" y="332" font-size="18">Archive &amp; restore</text><text x="557" y="494" font-size="23" font-weight="700">Versioning · replication · backup evidence</text></g>
  <g fill="none" stroke="#fbbf24" stroke-width="5" marker-end="url(#a)"><path d="M255 305h60"/><path d="M525 305h60"/><path d="M795 305h60"/></g><path d="M420 370v66M692 370v66" stroke="#6ee7b7" stroke-width="4" stroke-dasharray="10 8"/><text x="600" y="590" fill="#d1fae5" font-family="Arial" font-size="21" text-anchor="middle">Lifecycle rules follow business retention, recovery and cost requirements</text>
</svg>
