<svg xmlns="http://www.w3.org/2000/svg" width="1200" height="650" viewBox="0 0 1200 650" role="img" aria-labelledby="title desc"><title id="title">Kubernetes services and networking</title><desc id="desc">Request path through Gateway or Ingress, Service, EndpointSlice, and Pods with DNS, network policy, and CNI.</desc><defs><linearGradient id="bg4" x1="0" y1="0" x2="1" y2="1"><stop stop-color="#061526"/><stop offset="1" stop-color="#123c57"/></linearGradient><marker id="a4" markerWidth="8" markerHeight="8" refX="7" refY="4" orient="auto"><path d="M0 0l8 4-8 4z" fill="#22d3ee"/></marker></defs><rect width="1200" height="650" rx="36" fill="url(#bg4)"/>
  <g fill="none" stroke="#22d3ee" stroke-width="4" marker-end="url(#a4)"><path d="M190 325h85"/><path d="M465 325h80"/><path d="M735 325h75"/><path d="M970 285h70"/><path d="M970 365h70"/></g>
  <g font-family="Inter,Arial,sans-serif" text-anchor="middle"><g><circle cx="120" cy="325" r="70" fill="#164e63" stroke="#22d3ee" stroke-width="3"/><path d="M83 325h74M120 288c22 20 22 54 0 74M120 288c-22 20-22 54 0 74" fill="none" stroke="#fff" stroke-width="5"/><text x="120" y="427" fill="#fff" font-size="22" font-weight="750">Client</text></g><g><rect x="275" y="225" width="190" height="200" rx="30" fill="#153a60" stroke="#fbbf24" stroke-width="3"/><path d="M321 285h98l-14 80h-70z" fill="#fbbf24" opacity=".55"/><text x="370" y="328" fill="#fff" font-size="18" font-weight="700">L7</text><text x="370" y="395" fill="#fff" font-size="23" font-weight="750">Gateway</text></g><g><rect x="545" y="225" width="190" height="200" rx="30" fill="#326ce5"/><circle cx="640" cy="305" r="48" fill="#fff" opacity=".2"/><path d="M605 305h70M640 270v70" stroke="#fff" stroke-width="8"/><text x="640" y="395" fill="#fff" font-size="25" font-weight="750">Service</text></g><g><rect x="810" y="225" width="160" height="200" rx="30" fill="#153a60" stroke="#a78bfa" stroke-width="3"/><circle cx="855" cy="297" r="20" fill="#a78bfa"/><circle cx="925" cy="297" r="20" fill="#a78bfa"/><circle cx="890" cy="350" r="20" fill="#a78bfa"/><path d="M870 307l10 25M910 307l-10 25M875 350h30" stroke="#fff" stroke-width="5"/><text x="890" y="398" fill="#fff" font-size="19" font-weight="750">EndpointSlice</text></g><g fill="#326ce5" stroke="#93c5fd" stroke-width="3"><rect x="1040" y="235" width="120" height="100" rx="24"/><rect x="1040" y="345" width="120" height="100" rx="24"/></g><g fill="#fff" font-size="22" font-weight="750"><text x="1100" y="295">Pod A</text><text x="1100" y="405">Pod B</text></g></g>
  <g font-family="Inter,Arial,sans-serif"><text x="58" y="64" fill="#fff" font-size="30" font-weight="800">Services &amp; Networking</text><text x="58" y="98" fill="#a5f3fc" font-size="18">Name → route → select → deliver → verify</text><g text-anchor="middle"><rect x="240" y="520" width="210" height="58" rx="29" fill="#164e63" stroke="#22d3ee" stroke-width="2"/><text x="345" y="555" fill="#cffafe" font-size="18">CoreDNS</text><rect x="495" y="520" width="210" height="58" rx="29" fill="#172554" stroke="#60a5fa" stroke-width="2"/><text x="600" y="555" fill="#dbeafe" font-size="18">NetworkPolicy</text><rect x="750" y="520" width="210" height="58" rx="29" fill="#134e4a" stroke="#34d399" stroke-width="2"/><text x="855" y="555" fill="#d1fae5" font-size="18">CNI dataplane</text></g></g>
</svg>
