<svg xmlns="http://www.w3.org/2000/svg" width="1200" height="650" viewBox="0 0 1200 650" role="img" aria-labelledby="title desc"><title id="title">Kubernetes storage lifecycle</title><desc id="desc">Pod storage request through PVC, StorageClass, CSI provisioning, PV binding, and durable backend storage.</desc><defs><linearGradient id="bg3" x1="0" y1="0" x2="1" y2="1"><stop stop-color="#071426"/><stop offset="1" stop-color="#17315a"/></linearGradient><marker id="a3" markerWidth="8" markerHeight="8" refX="7" refY="4" orient="auto"><path d="M0 0l8 4-8 4z" fill="#5eead4"/></marker></defs><rect width="1200" height="650" rx="36" fill="url(#bg3)"/>
  <g fill="none" stroke="#5eead4" stroke-width="4" marker-end="url(#a3)"><path d="M225 315h90"/><path d="M475 315h85"/><path d="M720 315h85"/><path d="M965 315h75"/></g>
  <g font-family="Inter,Arial,sans-serif" text-anchor="middle"><g><rect x="55" y="230" width="170" height="170" rx="30" fill="#326ce5"/><path d="M98 278h84v74H98z" fill="#fff" opacity=".2"/><circle cx="140" cy="315" r="22" fill="#fff"/><text x="140" y="382" fill="#fff" font-size="25" font-weight="750">Pod</text></g><g><rect x="315" y="230" width="160" height="170" rx="30" fill="#153a60" stroke="#60a5fa" stroke-width="3"/><path d="M355 277h80v70h-80z" fill="#60a5fa" opacity=".45"/><path d="M370 298h50M370 320h42" stroke="#fff" stroke-width="7" stroke-linecap="round"/><text x="395" y="382" fill="#fff" font-size="25" font-weight="750">PVC</text></g><g><rect x="560" y="205" width="160" height="220" rx="30" fill="#153a60" stroke="#fbbf24" stroke-width="3"/><path d="M598 269h84M598 300h84M598 331h58" stroke="#fbbf24" stroke-width="10" stroke-linecap="round"/><text x="640" y="386" fill="#fff" font-size="22" font-weight="750">StorageClass</text><text x="640" y="409" fill="#fef3c7" font-size="14">policy · topology</text></g><g><rect x="805" y="230" width="160" height="170" rx="30" fill="#153a60" stroke="#a78bfa" stroke-width="3"/><ellipse cx="885" cy="293" rx="45" ry="20" fill="#8b5cf6"/><path d="M840 293v38c0 11 20 20 45 20s45-9 45-20v-38" fill="#8b5cf6" opacity=".75"/><text x="885" y="382" fill="#fff" font-size="25" font-weight="750">PV</text></g><g><rect x="1040" y="230" width="110" height="170" rx="30" fill="#134e4a" stroke="#5eead4" stroke-width="3"/><ellipse cx="1095" cy="286" rx="35" ry="15" fill="#5eead4"/><path d="M1060 286v55c0 9 16 15 35 15s35-6 35-15v-55" fill="#2dd4bf" opacity=".8"/><text x="1095" y="382" fill="#fff" font-size="18" font-weight="750">Storage</text></g></g>
  <g font-family="Inter,Arial,sans-serif"><text x="58" y="64" fill="#fff" font-size="30" font-weight="800">Storage</text><text x="58" y="98" fill="#99f6e4" font-size="18">Request → provision → bind → mount → retain</text><rect x="430" y="505" width="340" height="78" rx="28" fill="#12345c" stroke="#60a5fa" stroke-width="2"/><text x="600" y="538" fill="#fff" font-size="18" text-anchor="middle" font-weight="700">CSI controller provisions</text><text x="600" y="565" fill="#bfdbfe" font-size="16" text-anchor="middle">CSI node plugin mounts the volume</text></g>
</svg>
