<svg xmlns="http://www.w3.org/2000/svg" width="1200" height="650" viewBox="0 0 1200 650" role="img" aria-labelledby="title desc"><title id="title">Kubernetes troubleshooting loop</title><desc id="desc">Evidence-led troubleshooting flow from symptom and scope through hypothesis, minimal change, and independent verification.</desc><defs><linearGradient id="bg5" x1="0" y1="0" x2="1" y2="1"><stop stop-color="#081425"/><stop offset="1" stop-color="#3a1d46"/></linearGradient><marker id="a5" markerWidth="8" markerHeight="8" refX="7" refY="4" orient="auto"><path d="M0 0l8 4-8 4z" fill="#f0abfc"/></marker></defs><rect width="1200" height="650" rx="36" fill="url(#bg5)"/>
  <g fill="none" stroke="#f0abfc" stroke-width="4" marker-end="url(#a5)"><path d="M235 320h85"/><path d="M480 320h85"/><path d="M725 320h85"/><path d="M970 320h75"/><path d="M1100 420c0 130-910 130-910 20" stroke-dasharray="10 10"/></g>
  <g font-family="Inter,Arial,sans-serif" text-anchor="middle"><g><rect x="55" y="230" width="180" height="180" rx="32" fill="#4c1d46" stroke="#f472b6" stroke-width="3"/><path d="M145 270l51 90H94z" fill="#fb7185"/><text x="145" y="338" fill="#fff" font-size="30" font-weight="900">!</text><text x="145" y="390" fill="#fff" font-size="24" font-weight="750">Symptom</text></g><g><rect x="320" y="230" width="160" height="180" rx="32" fill="#173c6b" stroke="#60a5fa" stroke-width="3"/><circle cx="392" cy="302" r="35" fill="none" stroke="#fff" stroke-width="9"/><path d="M417 327l35 35" stroke="#fff" stroke-width="11" stroke-linecap="round"/><text x="400" y="390" fill="#fff" font-size="24" font-weight="750">Observe</text></g><g><rect x="565" y="230" width="160" height="180" rx="32" fill="#153a60" stroke="#fbbf24" stroke-width="3"/><path d="M609 278h72M609 309h55M609 340h72" stroke="#fbbf24" stroke-width="9" stroke-linecap="round"/><text x="645" y="390" fill="#fff" font-size="24" font-weight="750">Scope</text></g><g><rect x="810" y="230" width="160" height="180" rx="32" fill="#4c1d95" stroke="#a78bfa" stroke-width="3"/><path d="M890 270c-35 0-55 42-32 66 9 9 15 18 15 28h34c0-10 6-19 15-28 23-24 3-66-32-66z" fill="#c4b5fd"/><text x="890" y="390" fill="#fff" font-size="22" font-weight="750">Hypothesis</text></g><g><rect x="1045" y="230" width="110" height="180" rx="32" fill="#134e4a" stroke="#34d399" stroke-width="3"/><path d="M1075 320l18 18 36-48" fill="none" stroke="#fff" stroke-width="10" stroke-linecap="round" stroke-linejoin="round"/><text x="1100" y="390" fill="#fff" font-size="19" font-weight="750">Verify</text></g></g>
  <g font-family="Inter,Arial,sans-serif"><text x="58" y="64" fill="#fff" font-size="30" font-weight="800">Troubleshooting</text><text x="58" y="98" fill="#f5d0fe" font-size="18">Facts first, smallest safe change, independent evidence</text><g text-anchor="middle"><rect x="260" y="500" width="205" height="60" rx="30" fill="#172554" stroke="#60a5fa" stroke-width="2"/><text x="362" y="536" fill="#dbeafe" font-size="17">conditions · events</text><rect x="500" y="500" width="205" height="60" rx="30" fill="#3b1d4a" stroke="#f472b6" stroke-width="2"/><text x="602" y="536" fill="#fce7f3" font-size="17">logs · metrics</text><rect x="740" y="500" width="205" height="60" rx="30" fill="#134e4a" stroke="#34d399" stroke-width="2"/><text x="842" y="536" fill="#d1fae5" font-size="17">before / after</text></g></g>
</svg>
