<svg xmlns="http://www.w3.org/2000/svg" width="1200" height="650" viewBox="0 0 1200 650" role="img" aria-labelledby="title desc">
  <title id="title">Kubernetes workloads and scheduling</title><desc id="desc">Deployment reconciliation through ReplicaSet, scheduler placement, Pods, probes, and autoscaling.</desc>
  <defs><linearGradient id="bg2" x1="0" y1="0" x2="1" y2="1"><stop stop-color="#081425"/><stop offset="1" stop-color="#1a2855"/></linearGradient><marker id="a2" markerWidth="8" markerHeight="8" refX="7" refY="4" orient="auto"><path d="M0 0l8 4-8 4z" fill="#93c5fd"/></marker></defs><rect width="1200" height="650" rx="36" fill="url(#bg2)"/>
  <g fill="none" stroke="#93c5fd" stroke-width="4" marker-end="url(#a2)"><path d="M270 325h105"/><path d="M565 325h90"/><path d="M805 325h80"/></g>
  <g font-family="Inter,Arial,sans-serif" text-anchor="middle">
    <g><rect x="55" y="225" width="215" height="200" rx="30" fill="#173c6b" stroke="#60a5fa" stroke-width="3"/><path d="M110 277h105v82H110z" fill="#326ce5"/><path d="M130 297h65M130 318h65M130 339h44" stroke="#fff" stroke-width="7" stroke-linecap="round"/><text x="162" y="397" fill="#fff" font-size="25" font-weight="750">Deployment</text></g>
    <g><rect x="375" y="225" width="190" height="200" rx="30" fill="#173c6b" stroke="#a78bfa" stroke-width="3"/><circle cx="470" cy="307" r="46" fill="#8b5cf6" opacity=".75"/><path d="M444 307h52M470 281v52" stroke="#fff" stroke-width="8"/><text x="470" y="397" fill="#fff" font-size="25" font-weight="750">ReplicaSet</text></g>
    <g><rect x="655" y="225" width="150" height="200" rx="30" fill="#326ce5"/><path d="M694 298l36-34 36 34v48l-36 22-36-22z" fill="#fff" opacity=".2"/><circle cx="730" cy="315" r="18" fill="#fff"/><text x="730" y="397" fill="#fff" font-size="24" font-weight="750">Scheduler</text></g>
    <g><rect x="885" y="145" width="260" height="360" rx="30" fill="#122b4b" stroke="#34d399" stroke-width="3"/><text x="1015" y="194" fill="#fff" font-size="23" font-weight="750">Worker Nodes</text><g fill="#326ce5" stroke="#93c5fd" stroke-width="2"><rect x="925" y="230" width="78" height="82" rx="16"/><rect x="1027" y="230" width="78" height="82" rx="16"/><rect x="925" y="337" width="78" height="82" rx="16"/></g><g fill="#fff" font-size="18" font-weight="700"><text x="964" y="278">Pod</text><text x="1066" y="278">Pod</text><text x="964" y="385">Pod</text></g><path d="M1027 378h78" stroke="#fbbf24" stroke-width="10" stroke-linecap="round"/><text x="1066" y="412" fill="#fef3c7" font-size="15">pending slot</text><text x="1015" y="468" fill="#d1fae5" font-size="17">probes · requests · limits</text></g>
  </g><g font-family="Inter,Arial,sans-serif"><text x="58" y="64" fill="#fff" font-size="30" font-weight="800">Workloads &amp; Scheduling</text><text x="58" y="98" fill="#93c5fd" font-size="18">Controller ownership, placement, health, and scale</text><rect x="430" y="545" width="340" height="56" rx="28" fill="#172554" stroke="#fbbf24" stroke-width="2"/><text x="600" y="580" fill="#fef3c7" font-size="18" text-anchor="middle">HPA observes metrics and adjusts replicas</text></g>
</svg>
